<?xml version="1.0" encoding="UTF-8"?>
<svg width="270px" height="270px" viewBox="0 0 270 270" version="1.1" xmlns="http://www.w3.org/2000/svg" xmlns:xlink="http://www.w3.org/1999/xlink">
    <title>编组 3</title>
    <defs>
        <filter x="-15.0%" y="-68.2%" width="130.0%" height="236.4%" filterUnits="objectBoundingBox" id="filter-1">
            <feGaussianBlur stdDeviation="10" in="SourceGraphic"></feGaussianBlur>
        </filter>
        <linearGradient x1="17.6799305%" y1="47.58%" x2="90.0994243%" y2="45.8403945%" id="linearGradient-2">
            <stop stop-color="#FFFDD0" offset="0%"></stop>
            <stop stop-color="#FFFA8A" offset="100%"></stop>
            <stop stop-color="#FFFA8A" offset="100%"></stop>
        </linearGradient>
        <linearGradient x1="17.6799305%" y1="41.79875%" x2="90.0994243%" y2="35.9033203%" id="linearGradient-3">
            <stop stop-color="#FFFDD0" offset="0%"></stop>
            <stop stop-color="#FFFA8A" offset="100%"></stop>
            <stop stop-color="#FFFA8A" offset="100%"></stop>
        </linearGradient>
        <path d="M132.948165,-4.4408921e-15 C141.874891,0.685056732 150.224965,1.640679 157.79539,2.82220748 L119.101468,13.1893053 L118.227695,9.92833972 L73.7951067,21.8340158 L73.0186495,18.9362383 L117.451238,7.03056225 L116.731721,4.34528845 Z" id="path-4"></path>
        <filter x="-77.1%" y="-275.3%" width="258.3%" height="1202.2%" filterUnits="objectBoundingBox" id="filter-5">
            <feMorphology radius="0.5" operator="dilate" in="SourceAlpha" result="shadowSpreadOuter1"></feMorphology>
            <feOffset dx="0" dy="115.22" in="shadowSpreadOuter1" result="shadowOffsetOuter1"></feOffset>
            <feGaussianBlur stdDeviation="2" in="shadowOffsetOuter1" result="shadowBlurOuter1"></feGaussianBlur>
            <feComposite in="shadowBlurOuter1" in2="SourceAlpha" operator="out" result="shadowBlurOuter1"></feComposite>
            <feColorMatrix values="0 0 0 0 0   0 0 0 0 0   0 0 0 0 0  0 0 0 0.5 0" type="matrix" in="shadowBlurOuter1"></feColorMatrix>
        </filter>
        <path d="M166.555523,1.687539e-14 C169.308298,0.520350095 171.930913,1.07308934 174.411156,1.65553068 C174.476321,1.93790063 174.547918,2.22420254 174.625569,2.51400027 C175.712609,6.57088874 177.555894,9.55550992 180.052546,11.4084668 C182.483975,13.0180104 185.200739,13.4205775 188.202836,12.6161679 C190.953967,11.8790047 192.9773,10.5245191 194.322258,8.53946898 C197.234314,10.1418021 199.311718,11.8378785 200.439105,13.6010498 C200.084259,14.213037 199.675703,14.8150856 199.211986,15.4058463 C197.062044,18.416891 194.202042,20.400711 190.550843,21.379047 C185.439163,22.7487173 180.801098,21.9913294 176.555511,19.128624 C172.841504,16.4975445 170.015808,12.3278638 168.150269,6.66106172 L124.791682,18.2785345 L124,15.3239379 L167.302249,3.72053902 C167.027326,2.62281839 166.805084,1.55385828 166.635274,0.514087576 Z" id="path-6"></path>
        <filter x="-87.9%" y="-281.3%" width="275.8%" height="1225.2%" filterUnits="objectBoundingBox" id="filter-7">
            <feMorphology radius="0.5" operator="dilate" in="SourceAlpha" result="shadowSpreadOuter1"></feMorphology>
            <feOffset dx="0" dy="119" in="shadowSpreadOuter1" result="shadowOffsetOuter1"></feOffset>
            <feGaussianBlur stdDeviation="2" in="shadowOffsetOuter1" result="shadowBlurOuter1"></feGaussianBlur>
            <feComposite in="shadowBlurOuter1" in2="SourceAlpha" operator="out" result="shadowBlurOuter1"></feComposite>
            <feColorMatrix values="0 0 0 0 0   0 0 0 0 0   0 0 0 0 0  0 0 0 0.5 0" type="matrix" in="shadowBlurOuter1"></feColorMatrix>
        </filter>
        <linearGradient x1="50%" y1="0%" x2="50%" y2="100%" id="linearGradient-8">
            <stop stop-color="#FCFA2A" offset="0%"></stop>
            <stop stop-color="#FF0000" offset="100%"></stop>
        </linearGradient>
        <linearGradient x1="50%" y1="0%" x2="50%" y2="100%" id="linearGradient-9">
            <stop stop-color="#FFDA00" offset="0%"></stop>
            <stop stop-color="#FF0000" offset="100%"></stop>
        </linearGradient>
    </defs>
    <g id="页面-1" stroke="none" stroke-width="1" fill="none" fill-rule="evenodd">
        <g id="编组-3" transform="translate(2.000000, 0.000000)">
            <ellipse id="椭圆形" fill="#FFFFFF" cx="122.5" cy="220" rx="122.5" ry="27"></ellipse>
            <g id="蛋糕" transform="translate(22.000000, 0.000000)">
                <ellipse id="椭圆形" fill-opacity="0.647508741" fill="#000000" filter="url(#filter-1)" cx="130" cy="215" rx="100" ry="22"></ellipse>
                <ellipse id="椭圆形" fill="url(#linearGradient-2)" cx="100" cy="217" rx="100" ry="22"></ellipse>
                <rect id="矩形" fill="url(#linearGradient-3)" x="0" y="135" width="200" height="81"></rect>
                <ellipse id="椭圆形" fill="#FFB7B7" cx="100" cy="136" rx="100" ry="22"></ellipse>
                <g id="形状结合">
                    <use fill="black" fill-opacity="1" filter="url(#filter-5)" xlink:href="#path-4"></use>
                    <use fill-opacity="0" fill="#000000" fill-rule="evenodd" xlink:href="#path-4"></use>
                </g>
                <g id="形状结合">
                    <use fill="black" fill-opacity="1" filter="url(#filter-7)" xlink:href="#path-6"></use>
                    <use fill-opacity="0" fill="#000000" fill-rule="evenodd" xlink:href="#path-6"></use>
                </g>
            </g>
            <g id="蜡烛" transform="translate(74.000000, 2.000000)">
                <g id="1">
                    <rect id="矩形" fill="#FFAD7E" x="20" y="89" width="3" height="46"></rect>
                    <text font-family="PingFangSC-Medium, PingFang SC" font-size="84" font-weight="400" fill="#FFFFFF" fill-opacity="0.85">
                        <tspan x="0" y="89">1</tspan>
                    </text>
                    <path d="M24.619728,18.0492362 C16.0476186,2.46294135 26.1554591,19.8199468 19.9121821,18.0793589 C18.7051071,17.7428337 18.5446599,13.785731 17.9362271,14.8812166 C14.2188935,21.5742896 15.4616208,32.1974482 25.1161686,28.2610615 C31.9321843,25.4820112 30.8490486,7.19047096 25.3555156,18.247252 L24.619728,18.0492362 Z" id="路径" fill="url(#linearGradient-8)"></path>
                </g>
                <g id="8" transform="translate(46.000000, 0.000000)">
                    <rect id="矩形" fill="#FFAD7E" x="24" y="89" width="3" height="46"></rect>
                    <text font-family="PingFangSC-Medium, PingFang SC" font-size="84" font-weight="400" fill="#FFFFFF" fill-opacity="0.85">
                        <tspan x="0" y="89">8</tspan>
                    </text>
                    <path d="M21.4926086,18.1617552 C23.3754938,15.0979142 23.7439949,5.89023306 26.4724629,14.7561715 C26.8423037,15.9579393 25.4432057,17.5892243 26.2845526,18.5236565 C29.1247485,21.6780868 29.4131038,13.7416484 30.2135013,14.8146324 C34.2210717,20.187037 29.2155,29.922767 22.2252267,27.7892569 C17.6297921,26.3866785 13.8295351,12.5845523 20.9530046,17.4648633 L21.4926086,18.1617552 Z" id="路径-2" fill="url(#linearGradient-9)"></path>
                </g>
            </g>
            <g id="碎屑" transform="translate(44.210795, 119.646478)">
                <path d="M0,16.9719877 C0.789558176,18.1422728 1.57911635,19.3125579 2.36867453,20.4828429" id="路径-3" stroke="#6666BA"></path>
                <line x1="8.90821867" y1="13.9248553" x2="12.7523745" y2="13.9248553" id="路径-4" stroke="#44D499"></line>
                <path d="M23.5813538,19.3749145 C24.374425,21.2122401 25.1674962,23.0495657 25.9605674,24.8868913" id="路径-5" stroke="#FF77D4"></path>
                <path d="M31.7109925,10.309926 C32.9409995,9.96301218 34.1710064,9.61609841 35.4010133,9.26918464" id="路径-6" stroke="#772424"></path>
                <line x1="68.6968309" y1="5.55676817" x2="70.9429878" y2="5.55676817" id="路径-7" stroke="#6EDF24"></line>
                <path d="M70.3172256,19.5606671 C71.1700187,20.2593251 72.0228118,20.957983 72.8756049,21.656641" id="路径-8" stroke="#88FF00"></path>
                <path d="M50.5378711,25.4612751 C50.8948849,26.3404161 51.2518987,27.219557 51.6089125,28.098698" id="路径-9" stroke="#3027D2"></path>
                <path d="M84.0115369,27.1132872 C86.3903115,29.161835 88.769086,31.2103828 91.1478606,33.2589306" id="路径-10" stroke="#427FB0"></path>
                <path d="M104.325753,25.755054 C106.044953,25.7164104 107.764152,25.6777668 109.483351,25.6391233" id="路径-11" stroke="#FF3B3B"></path>
                <path d="M121.948534,24.9540784 C122.88564,25.0212655 123.822746,25.0884526 124.759853,25.1556397" id="路径-12" stroke="#9D4343"></path>
                <path d="M138.278951,14.6810395 C138.854213,15.0771359 139.429475,15.4732324 140.004737,15.8693289" id="路径-13" stroke="#894D4D"></path>
                <path d="M125.796642,9.60512013 C125.854607,8.45371771 125.912573,7.3023153 125.970538,6.15091289" id="路径-14" stroke="#D543B3"></path>
                <path d="M63.7039074,28.6533209 C63.5159592,29.2926962 63.328011,29.9320714 63.1400627,30.5714467" id="路径-15" stroke="#497A73"></path>
                <polyline id="路径-16" stroke="#FF8300" points="80.2016333 7.51309835 82.6388123 7.51309835 82.7257603 7.51309835 82.8127083 7.51309835 83.2474484 7.51309835"></polyline>
                <path d="M37.6247745,2.48328781 C38.5706634,2.83107985 39.5165524,3.17887188 40.4624413,3.52666391" id="路径-17" stroke="#0093FF"></path>
                <path d="M38.6022809,18.0351247 C38.5667112,19.1443706 38.5311416,20.2536164 38.495572,21.3628622" id="路径-18" stroke="#DB00FF"></path>
                <path d="M151.875775,10.122856 C152.748768,10.3244173 153.621761,10.5259786 154.494754,10.7275399" id="路径-19" stroke="#5BFF00"></path>
                <line x1="161.026394" y1="17.5503237" x2="161.026394" y2="21.1270486" id="路径-20" stroke="#40B7BD"></line>
                <path d="M150.122323,25.9829631 C149.005612,26.1493939 147.888901,26.3158247 146.77219,26.4822555" id="路径-21" stroke="#FF00DE"></path>
                <path d="M136.599273,28.8799127 C135.966046,29.6971361 135.332818,30.5143596 134.699591,31.331583" id="路径-22" stroke="#5CFF00"></path>
                <line x1="5.15496298" y1="4.4383006" x2="7.60004636" y2="4.4383006" id="路径-23" stroke="#FFF900"></line>
                <path d="M19.1865272,8.08616477 C19.5633019,8.49192214 19.9400766,8.89767951 20.3168513,9.30343689" id="路径-24" stroke="#9D00FF"></path>
                <path d="M91.1610345,1.33452019 C92.1468844,0.889680125 93.1327343,0.444840063 94.1185842,-1.42108547e-14" id="路径-25" stroke="#FF0000"></path>
                <path d="M110.439779,5.38023736 C111.126581,4.72154033 111.813382,4.0628433 112.500184,3.40414626" id="路径-26" stroke="#6200FF"></path>
                <polyline id="路径-27" stroke="#00D2FF" points="116.492187 16.2843366 118.191045 16.2843366 118.315873 16.2843366 118.372302 16.2843366 118.49713 16.2843366"></polyline>
                <polyline id="路径-28" stroke="#00FF9F" points="89.5549994 15.4857797 88.1716321 15.4857797 88.114348 15.4857797"></polyline>
            </g>
            <g id="巧克力酱" transform="translate(22.000000, 139.200000)">
                <path d="M5,4 C5.24030262,9.86371037 5.52870147,13.937633 5.86519655,16.221768 C6.72256475,22.0415995 8.23408965,25.9773248 8.83353836,28.8254237 C11.3141216,40.6111637 13.7917464,48.3478634 15.7330793,51.5 C16.5405602,52.8111046 16.8558217,54.2962823 17.9200124,56.5325688 C22.9036924,67.0052565 32.8581578,85.8639425 56.3528483,97.4410673 C58.2717602,98.3866207 62.2495671,97.6386229 63.5404772,97.8792346 C65.731665,98.2876483 67.2406402,98.5115539 68.7232701,98.7064005 C70.1320406,98.8915405 71.1602167,98.633134 72.3537335,98.7064005 C71.8030847,98.479047 71.9347288,98.5769135 72.7486657,99 C66.8122521,96.6937388 57.8267463,89.6270722 45.7921483,77.8 C33.0172084,65.2453525 23.7894284,44.71778 18.696927,27.4496726 C16.5933623,20.3167182 15.1617794,13.800199 14.9488618,8.54517565 C14.9172061,7.7638805 13.1902338,7.94665962 12.6604439,7.71791322 C11.7431686,7.32186304 11.0344497,6.87659475 10.4983741,6.70945129 C8.99998964,6.24226869 9.00159405,6.20636602 8.04156433,5.68749075 C7.01416189,5.13220199 6.00030711,4.56970507 5,4 Z" id="路径-46" fill="#D2691E"></path>
                <path d="M0.295098677,64.3116515 L0.295098677,76.8 C0.497714726,79.6582131 1.17449152,81.6507125 2.32542905,82.7774981 C3.47636658,83.9042837 5.89115936,85.4051334 9.56980739,87.280047 C6.20204687,82.1095556 4.38614837,78.9495399 4.1221119,77.8 C3.85807543,76.6504601 2.58240435,72.1543439 0.295098677,64.3116515 Z" id="路径-30" fill="#D2691E"></path>
                <polygon id="路径-29" fill="#D2691E" points="66.0879772 18.4862166 75 35.1681518 86.1327796 51.5378667 96.3356676 64.0309347 111.045468 78.5268326 128.251138 90.9748379 138.702982 97.4410673 152.492216 95.8311782 137.810152 85.5913066 120.853444 71.7421771 110.325143 60.5881752 95.0863994 42.0150841 85.6327796 28.5088819 79.2407406 18.8"></polygon>
                <polygon id="路径-31" fill="#D2691E" points="139.705453 17.2190661 147.891809 16.3537622 152.86234 15.8 162.068815 27.9461869 174.037444 42.3487142 183.73843 52.8128357 194.382721 60.2247732 200.370124 63.5756754 200.076282 78.0715733 182.670255 67.1796858 171.277812 56.9292706 160.776587 45.3067105 150.524388 32.1757185"></polygon>
                <path d="M190.868729,6.17908696 L194.933415,4.15023779 L198.926619,0.566485591 L200.019797,1.99025884 L200.019797,16.3537622 C198.039757,14.6983842 196.514579,13.2756766 195.444263,12.0856395 C194.373948,10.8956024 192.84877,8.92675155 190.868729,6.17908696 Z" id="路径-32" fill="#D2691E"></path>
                <path d="M6.80029465,20.5842961 C11.8269564,28.7004255 8.21083166,26.3397634 17.6245162,27.7031429" id="路径-33" stroke="#FF0000" stroke-width="2"></path>
                <path d="M20.9641665,61.5398555 C34.7893012,69.6674521 28.6813116,68.5752096 37.9109946,69.2411374" id="路径-35" stroke="#39FF00" stroke-width="2"></path>
                <path d="M36.3254365,83.5658132 C44.2399063,86.4491624 39.5366418,85.4789851 50.6762246,84.8355956" id="路径-36" stroke="#FF0000" stroke-width="2"></path>
                <path d="M0.305760165,78.8886902 C1.4650211,78.6676473 2.62428203,78.4466044 3.78354296,78.2255614" id="路径-37" stroke="#588AFF" stroke-width="2"></path>
                <path d="M73.0896147,25.5942649 C79.629775,31.9336208 75.9077005,30.8943291 83.7355044,30.1845496" id="路径-38" stroke="#39FF00" stroke-width="2"></path>
                <path d="M87.8782378,50.4099789 C96.3927471,50.1890589 94.7084365,52.6184476 96.0440742,46.9504139" id="路径-39" stroke="#588AFF" stroke-width="2"></path>
                <path d="M103.337884,69.5253354 C112.325319,70.0686635 109.049255,71.5850165 114.015959,67.7181272" id="路径-40" stroke="#FF00B5" stroke-width="2"></path>
                <path d="M120.411022,82.7617998 C126.417642,84.6408673 132.424261,86.5199347 138.43088,88.3990022" id="路径-41" stroke="#FD710C" stroke-width="2"></path>
                <path d="M150.563345,29.7224241 C156.248008,29.6722102 154.277329,30.9314115 157.049498,27.0480474" id="路径-42" stroke="#FF0000" stroke-width="2"></path>
                <path d="M163.558726,44.808605 C166.289376,44.1187567 169.020026,43.4289084 171.750675,42.7390601" id="路径-43" stroke="#588AFF" stroke-width="2"></path>
                <path d="M172.478174,56.5001978 C180.890101,59.4229167 176.568891,59.1526391 185.451087,57.1457161" id="路径-44" stroke="#39FF00" stroke-width="2"></path>
                <path d="M189.033318,69.2374938 C197.545564,69.1326299 195.048654,71.1045153 198.342627,67.1296915" id="路径-45" stroke="#FF00B5" stroke-width="2"></path>
                <path d="M197.043089,11.2191865 C197.732937,11.0278993 198.422786,10.8366121 199.112634,10.645325" id="路径-47" stroke="#FFEF00" stroke-width="2"></path>
                <path d="M12.514533,43.3484909 C18.9557492,47.6281127 15.5513619,46.3552969 22.5893874,47.5182064" id="路径-34" stroke="#FF00B5" stroke-width="2"></path>
            </g>
        </g>
    </g>
</svg>